<svg id="Слой_2" data-name="Слой 2" xmlns="http://www.w3.org/2000/svg" xmlns:xlink="http://www.w3.org/1999/xlink" viewBox="0 0 100 100"><defs><style>.cls-1,.cls-3{fill:none;}.cls-2{clip-path:url(#clip-path);}.cls-3{stroke:#1d1d1b;stroke-linecap:round;stroke-linejoin:round;stroke-width:0.68px;}</style><clipPath id="clip-path"><polygon class="cls-1" points="0 0 0.473 97.243 97.243 97.243 96.77 0 0 0"/></clipPath></defs><title>composition-bg-first</title><g class="cls-2"><path class="cls-3" d="M43.907,37.543a1.835,1.835,0,0,0,.689.159c.519,0,.831-.351.941-1.043.354-2.248-.776-3.8-3.268-4.489l-.179-.05-.062.181c-.785,2.434-.067,4.443,1.88,5.242"/><path class="cls-3" d="M35.768,45.224l-.073.161.149.092a4.093,4.093,0,0,0,2.1.709,2.928,2.928,0,0,0,2.177-1.095c.4-.43.542-.776.459-1.084s-.39-.54-.99-.723a2.989,2.989,0,0,0-3.823,1.94"/><path class="cls-3" d="M38.619,38.785l-.014.163A3.647,3.647,0,0,0,42.1,42.753a3.733,3.733,0,0,0,1.747-.475L44,42.2l-.06-.165c-.863-2.317-1.618-3.348-3.814-3.348a12.054,12.054,0,0,0-1.337.083Z"/><path class="cls-3" d="M37.352,40.588c0-.328-.232-.625-.76-.96a3.01,3.01,0,0,0-4.207.84l-.108.135.119.128a3.485,3.485,0,0,0,2.5,1.341,3.269,3.269,0,0,0,1.729-.562c.5-.306.73-.6.732-.921"/><path class="cls-3" d="M37.263,29.737l-.168.016-.012.168a3.344,3.344,0,0,0,.691,2.6,3.426,3.426,0,0,0,2.611.895l.275,0,.019-.174a3.326,3.326,0,0,0-.625-2.663,3.178,3.178,0,0,0-2.79-.841"/><path class="cls-3" d="M47.7,25.952c-2.675,2.374-3,5.5-.822,7.968a2,2,0,0,0,.516.441l.294.167V31.4h.285v3.123l.292-.161a2.088,2.088,0,0,0,.521-.443c2.175-2.468,1.851-5.594-.824-7.968l-.133-.115Z"/><path class="cls-3" d="M56.893,35.661l.094.266-2.508.907.314.221a3.272,3.272,0,0,0,.443.253,5.519,5.519,0,0,0,2.25.526c1.807,0,3.357-1.1,4.471-3.174l.082-.151-.135-.1a5.35,5.35,0,0,0-3.219-1.19,4.973,4.973,0,0,0-3.906,2.069,1.618,1.618,0,0,0-.459,1.031l.014.271Z"/><path class="cls-3" d="M33.339,34.405l-.135.1.083.149c1.12,2.074,2.664,3.176,4.475,3.176a5.477,5.477,0,0,0,2.244-.528,3,3,0,0,0,.443-.252l.321-.221-2.516-.907.1-.266,2.563.925.013-.271a1.631,1.631,0,0,0-.457-1.031,4.976,4.976,0,0,0-3.906-2.069,5.364,5.364,0,0,0-3.224,1.19"/><path class="cls-3" d="M47.838,35.619c-.156.03-.307.06-.461.089v5.724c-.873-.831-1.476-1.408-2.08-1.98-.094.1-.189.209-.287.31.5,1.366.987,2.73,1.578,4.369-.921-.363-1.582-.625-2.252-.886,1.263,3.375,2.516,6.659,2.413,9.865l-4.617-7.338-9.543,5.913a6.648,6.648,0,0,0-2.066,9.148A6.6,6.6,0,0,0,39.646,62.9l7.635-4.728c.186-.027.37-.051.556-.062a11.944,11.944,0,0,1,2.59.59l6.785,4.2a6.627,6.627,0,0,0,7.056-11.219l-8.011-4.946-1.529-.965L49.988,53.3a19.523,19.523,0,0,1,1.344-10.059c-.669.26-1.329.523-2.25.886.592-1.639,1.083-3,1.577-4.369-.1-.1-.189-.205-.285-.31l-2.08,1.98V35.708l-.457-.089"/><path class="cls-3" d="M57.891,40.588c0,.322.239.615.733.921a3.26,3.26,0,0,0,1.729.562,3.485,3.485,0,0,0,2.494-1.341l.12-.128-.114-.135a3,3,0,0,0-4.2-.84c-.526.335-.764.632-.762.96"/><path class="cls-3" d="M55.092,44.006c-.085.31.062.652.457,1.084a2.934,2.934,0,0,0,2.179,1.095,4.087,4.087,0,0,0,2.1-.709l.149-.092-.069-.161a3,3,0,0,0-3.826-1.938c-.6.181-.9.406-.99.721"/><path class="cls-3" d="M55.291,30.58a3.338,3.338,0,0,0-.629,2.661l.021.175.276,0a3.416,3.416,0,0,0,2.609-.9,3.33,3.33,0,0,0,.693-2.6l-.011-.17-.17-.016a3.182,3.182,0,0,0-2.79.843"/><path class="cls-3" d="M51.737,42.032l-.062.165.154.081a3.712,3.712,0,0,0,1.747.475,3.364,3.364,0,0,0,1.95-.663,3.328,3.328,0,0,0,1.541-3.143l-.014-.163-.167-.018a12.111,12.111,0,0,0-1.334-.085c-2.2,0-2.951,1.033-3.816,3.35"/><path class="cls-3" d="M53.583,32.12l-.183.048c-2.489.691-3.619,2.244-3.265,4.493.108.691.425,1.042.941,1.042a1.863,1.863,0,0,0,.686-.158c1.947-.8,2.668-2.808,1.881-5.242Z"/><path class="cls-3" d="M19.689,52.175a1.855,1.855,0,0,0,.158-.691c0-.521-.347-.834-1.038-.944-2.243-.356-3.791.779-4.478,3.277l-.05.181.183.06c2.425.788,4.429.067,5.226-1.883"/><path class="cls-3" d="M8.13,48.366c2.367,2.684,5.488,3,7.947.826a1.956,1.956,0,0,0,.439-.517l.165-.3H13.565v-.285h3.114l-.161-.292a2.019,2.019,0,0,0-.441-.523C13.618,45.1,10.5,45.422,8.13,48.1l-.114.133Z"/><path class="cls-3" d="M14.282,42.47l.048.184c.689,2.5,2.237,3.628,4.48,3.275.687-.11,1.04-.427,1.04-.944a1.889,1.889,0,0,0-.159-.689c-.8-1.95-2.8-2.675-5.226-1.885Z"/><path class="cls-3" d="M77.176,52.175a1.852,1.852,0,0,1-.158-.691c0-.521.347-.834,1.038-.944,2.243-.356,3.791.779,4.478,3.277l.05.181-.183.06c-2.425.788-4.429.067-5.226-1.883"/><path class="cls-3" d="M88.734,48.366c-2.367,2.684-5.486,3-7.945.826a1.96,1.96,0,0,1-.439-.517l-.165-.3H83.3v-.285H80.187l.161-.292a1.979,1.979,0,0,1,.441-.523c2.459-2.182,5.579-1.857,7.945.826l.115.133Z"/><path class="cls-3" d="M82.584,42.47l-.048.184c-.689,2.5-2.237,3.628-4.48,3.275-.687-.11-1.04-.427-1.04-.944a1.889,1.889,0,0,1,.159-.689c.8-1.95,2.8-2.675,5.226-1.885Z"/><path class="cls-3" d="M52.362,77.059a1.845,1.845,0,0,0-.689-.159c-.519,0-.831.351-.941,1.043-.354,2.248.776,3.8,3.267,4.489l.181.05.062-.181c.785-2.434.066-4.443-1.879-5.242"/><path class="cls-3" d="M48.564,88.65c2.675-2.374,3-5.5.822-7.968a2.033,2.033,0,0,0-.516-.441l-.294-.167V83.2h-.285V80.078L48,80.239a2.088,2.088,0,0,0-.521.443c-2.175,2.468-1.851,5.594.824,7.968l.133.115Z"/><path class="cls-3" d="M42.684,82.483l.184-.048c2.489-.691,3.618-2.244,3.265-4.493-.108-.691-.425-1.042-.941-1.042a1.88,1.88,0,0,0-.687.158c-1.945.8-2.666,2.808-1.88,5.242Z"/><path class="cls-3" d="M52.362,19.411a1.838,1.838,0,0,1-.689.158c-.519,0-.831-.349-.942-1.042-.353-2.248.778-3.8,3.268-4.491l.181-.05.062.182c.785,2.432.066,4.441-1.879,5.242"/><path class="cls-3" d="M48.564,7.819c2.675,2.374,3,5.5.822,7.968a2,2,0,0,1-.516.441l-.294.167V13.268h-.285v3.125L48,16.23a2.051,2.051,0,0,1-.521-.443c-2.175-2.466-1.851-5.594.824-7.968l.133-.115Z"/><path class="cls-3" d="M42.684,13.988l.184.048c2.489.691,3.618,2.243,3.265,4.493-.108.691-.425,1.04-.941,1.04a1.844,1.844,0,0,1-.687-.158c-1.945-.8-2.666-2.806-1.88-5.24Z"/><ellipse class="cls-3" cx="48.433" cy="48.356" rx="24.197" ry="24.265"/><ellipse class="cls-3" cx="48.433" cy="48.356" rx="27.123" ry="27.199"/><path class="cls-3" d="M81.06-.2l-.073.161.149.092a4.1,4.1,0,0,0,2.1.709A2.922,2.922,0,0,0,85.414-.329c.4-.43.544-.776.459-1.084s-.39-.54-.988-.723A2.992,2.992,0,0,0,81.06-.2"/><path class="cls-3" d="M93.13-9.8c-.154.032-.3.06-.461.089v5.724C91.8-4.819,91.194-5.4,90.59-5.967c-.094.1-.189.207-.287.308.5,1.366.987,2.73,1.578,4.369-.921-.363-1.58-.625-2.25-.886,1.261,3.375,2.514,6.659,2.413,9.865L87.428.352,77.883,6.265a6.648,6.648,0,0,0-2.066,9.148,6.606,6.606,0,0,0,9.121,2.073l7.635-4.73c.186-.025.37-.05.556-.062a11.958,11.958,0,0,1,2.591.59l6.785,4.2a6.626,6.626,0,0,0,7.054-11.219L101.55,1.317,100.021.352l-4.74,7.531A19.523,19.523,0,0,1,96.625-2.176c-.669.26-1.329.523-2.25.886.592-1.639,1.083-3,1.579-4.369-.1-.1-.191-.205-.287-.308-.6.57-1.206,1.148-2.078,1.979V-9.712c-.152-.028-.306-.057-.459-.089"/><path class="cls-3" d="M64.982,6.755a1.862,1.862,0,0,0,.159-.691c0-.521-.349-.834-1.04-.944-2.243-.356-3.789.779-4.477,3.277l-.05.181.181.06c2.427.788,4.429.067,5.226-1.883"/><path class="cls-3" d="M53.424,2.945c2.367,2.684,5.488,3.006,7.945.826a1.96,1.96,0,0,0,.439-.517l.167-.3H58.857V2.673h3.114L61.81,2.38a1.979,1.979,0,0,0-.441-.523C58.912-.325,55.791,0,53.424,2.685l-.115.131Z"/><path class="cls-3" d="M59.574-2.95l.048.184C60.311-.268,61.859.862,64.1.509c.689-.11,1.04-.427,1.04-.944a1.881,1.881,0,0,0-.159-.687c-.8-1.952-2.8-2.677-5.226-1.887Z"/><path class="cls-3" d="M97.654,31.639a1.837,1.837,0,0,0-.687-.159c-.521,0-.833.351-.942,1.043-.354,2.248.778,3.8,3.268,4.489l.179.05.062-.181c.785-2.434.067-4.441-1.879-5.242"/><path class="cls-3" d="M93.857,43.23c2.677-2.374,3-5.5.822-7.968a2.028,2.028,0,0,0-.514-.441l-.3-.165V37.78h-.285V34.657l-.292.161a2.088,2.088,0,0,0-.521.443c-2.175,2.468-1.851,5.594.825,7.968l.131.115Z"/><path class="cls-3" d="M87.978,37.062l.182-.048c2.491-.691,3.619-2.244,3.265-4.493-.108-.691-.425-1.042-.941-1.042a1.863,1.863,0,0,0-.686.158c-1.945.8-2.668,2.808-1.881,5.242Z"/><ellipse class="cls-3" cx="93.726" cy="2.935" rx="24.198" ry="24.265"/><ellipse class="cls-3" cx="93.725" cy="2.935" rx="27.123" ry="27.199"/><path class="cls-3" d="M3.293-9.8c-.156.032-.307.06-.461.089v5.724C1.959-4.819,1.357-5.4.752-5.967c-.094.1-.189.207-.287.31.5,1.364.987,2.728,1.578,4.367-.921-.363-1.58-.625-2.25-.886C1.055,1.2,2.308,4.483,2.205,7.689L-2.412.352l-9.543,5.913a6.648,6.648,0,0,0-2.066,9.148,6.577,6.577,0,0,0,5.6,3.093A6.586,6.586,0,0,0-4.9,17.485l7.635-4.73c.186-.025.37-.05.556-.062a11.944,11.944,0,0,1,2.59.59l6.785,4.2A6.627,6.627,0,0,0,19.723,6.263L11.713,1.317,10.184.352,5.443,7.882A19.523,19.523,0,0,1,6.788-2.176c-.669.26-1.329.523-2.25.886.592-1.639,1.083-3,1.577-4.367-.1-.1-.189-.207-.285-.31L3.75-3.989V-9.712c-.151-.028-.306-.057-.457-.089"/><path class="cls-3" d="M10.547-1.414c-.085.31.062.654.459,1.084A2.928,2.928,0,0,0,13.182.765a4.087,4.087,0,0,0,2.1-.709l.149-.092L15.363-.2a3,3,0,0,0-3.826-1.938c-.6.181-.9.406-.99.721"/><path class="cls-3" d="M32.631,6.755a1.852,1.852,0,0,1-.158-.691c0-.521.347-.834,1.038-.944C35.754,4.764,37.3,5.9,37.99,8.4l.05.181-.183.06c-2.425.788-4.429.067-5.226-1.883"/><path class="cls-3" d="M44.191,2.945c-2.369,2.684-5.488,3.006-7.947.826a1.956,1.956,0,0,1-.439-.517l-.165-.3h3.116V2.673H35.642L35.8,2.38a2.019,2.019,0,0,1,.441-.523C38.7-.325,41.823,0,44.191,2.685l.113.133Z"/><path class="cls-3" d="M38.039-2.95l-.048.184C37.3-.268,35.754.862,33.511.509c-.687-.11-1.04-.427-1.04-.944a1.881,1.881,0,0,1,.159-.687c.8-1.952,2.8-2.677,5.226-1.887Z"/><path class="cls-3" d="M7.817,31.639a1.845,1.845,0,0,0-.689-.159c-.519,0-.831.351-.941,1.043-.354,2.248.776,3.8,3.267,4.489l.181.05.062-.181c.785-2.434.066-4.441-1.879-5.242"/><path class="cls-3" d="M4.019,43.23c2.675-2.372,3-5.5.822-7.968a2.033,2.033,0,0,0-.516-.441l-.294-.165V37.78H3.746V34.657l-.292.161a2.088,2.088,0,0,0-.521.443c-2.175,2.468-1.851,5.6.824,7.968l.133.115Z"/><path class="cls-3" d="M-1.861,37.062l.184-.048c2.489-.691,3.618-2.244,3.265-4.493-.108-.691-.425-1.042-.941-1.042a1.864,1.864,0,0,0-.686.158c-1.947.8-2.668,2.808-1.881,5.242Z"/><ellipse class="cls-3" cx="3.888" cy="2.935" rx="24.197" ry="24.265"/><ellipse class="cls-3" cx="3.887" cy="2.935" rx="27.123" ry="27.199"/><path class="cls-3" d="M89.2,83.5a1.849,1.849,0,0,0,.689.159c.519,0,.831-.351.942-1.043.354-2.248-.778-3.8-3.268-4.489l-.181-.05-.062.181c-.785,2.434-.066,4.443,1.88,5.242"/><path class="cls-3" d="M81.06,91.177l-.073.163.149.092a4.116,4.116,0,0,0,2.1.707,2.922,2.922,0,0,0,2.177-1.095c.4-.43.544-.776.459-1.084s-.39-.54-.988-.723a2.992,2.992,0,0,0-3.825,1.94"/><path class="cls-3" d="M83.913,84.738,83.9,84.9a3.647,3.647,0,0,0,3.493,3.8,3.746,3.746,0,0,0,1.747-.473l.152-.083-.062-.163c-.861-2.319-1.618-3.35-3.814-3.35a11.705,11.705,0,0,0-1.337.085Z"/><path class="cls-3" d="M82.647,86.541c0-.328-.234-.624-.762-.958a3.006,3.006,0,0,0-4.206.838l-.11.136.119.126a3.491,3.491,0,0,0,2.5,1.343,3.272,3.272,0,0,0,1.727-.563c.5-.306.73-.6.734-.921"/><path class="cls-3" d="M82.555,75.691l-.168.016-.011.168a3.329,3.329,0,0,0,.691,2.6,3.422,3.422,0,0,0,2.609.895l.276,0,.019-.174a3.329,3.329,0,0,0-.627-2.661,3.178,3.178,0,0,0-2.79-.843"/><path class="cls-3" d="M93,71.906c-2.675,2.374-3,5.5-.822,7.968a2,2,0,0,0,.516.441l.3.167V77.355h.283v3.123l.292-.161a2.088,2.088,0,0,0,.521-.443c2.177-2.466,1.851-5.594-.824-7.968l-.133-.115Z"/><path class="cls-3" d="M102.185,81.614l.094.266-2.508.909.314.22a3.025,3.025,0,0,0,.445.253,5.483,5.483,0,0,0,2.248.526c1.809,0,3.357-1.1,4.471-3.174l.083-.151-.136-.1a5.337,5.337,0,0,0-3.219-1.192,4.968,4.968,0,0,0-3.9,2.069,1.6,1.6,0,0,0-.459,1.031l.012.273Z"/><path class="cls-3" d="M78.633,80.358l-.136.1.083.151c1.12,2.073,2.664,3.174,4.475,3.174A5.448,5.448,0,0,0,85.3,83.26a2.869,2.869,0,0,0,.445-.252l.319-.22-2.516-.909.1-.266,2.561.927.013-.273a1.622,1.622,0,0,0-.457-1.031,4.973,4.973,0,0,0-3.906-2.069,5.36,5.36,0,0,0-3.222,1.19"/><path class="cls-3" d="M93.13,81.573c-.154.032-.3.06-.461.089v5.724c-.872-.831-1.476-1.408-2.08-1.979-.094.1-.189.207-.287.31.5,1.364.987,2.728,1.578,4.367-.921-.363-1.58-.625-2.25-.886,1.261,3.375,2.514,6.659,2.413,9.865l-4.617-7.338-9.545,5.913a6.648,6.648,0,0,0-2.066,9.148,6.606,6.606,0,0,0,9.121,2.073l7.635-4.73c.186-.025.37-.05.558-.062a11.967,11.967,0,0,1,2.59.59l6.785,4.2a6.626,6.626,0,0,0,7.054-11.219L101.55,92.69l-1.529-.965-4.739,7.531A19.5,19.5,0,0,1,96.625,89.2c-.669.26-1.329.523-2.25.886.592-1.639,1.083-3,1.579-4.367l-.287-.31c-.6.57-1.206,1.148-2.078,1.979V81.661c-.152-.028-.306-.057-.459-.089"/><path class="cls-3" d="M100.585,76.533a3.327,3.327,0,0,0-.629,2.661l.021.175.276,0a3.412,3.412,0,0,0,2.608-.9,3.321,3.321,0,0,0,.693-2.6l-.011-.172-.17-.016a3.178,3.178,0,0,0-2.788.843"/><path class="cls-3" d="M97.03,87.986l-.06.165.154.081a3.7,3.7,0,0,0,1.745.475,3.642,3.642,0,0,0,3.492-3.8l-.014-.165-.165-.018a12.088,12.088,0,0,0-1.336-.083c-2.2,0-2.951,1.031-3.816,3.348"/><path class="cls-3" d="M98.877,78.075l-.184.048c-2.489.691-3.618,2.243-3.265,4.493.108.689.425,1.04.941,1.04a1.88,1.88,0,0,0,.687-.158c1.945-.8,2.666-2.808,1.88-5.24Z"/><path class="cls-3" d="M64.982,98.128a1.862,1.862,0,0,0,.159-.691c0-.521-.349-.834-1.04-.944-2.243-.356-3.789.779-4.477,3.277l-.05.181.181.06c2.427.788,4.429.067,5.226-1.883"/><path class="cls-3" d="M53.424,94.321c2.367,2.682,5.488,3,7.945.824a1.959,1.959,0,0,0,.439-.517l.167-.3H58.857v-.285h3.114l-.161-.292a1.98,1.98,0,0,0-.441-.523c-2.457-2.182-5.579-1.857-7.945.827l-.115.133Z"/><path class="cls-3" d="M59.574,88.423l.048.184c.689,2.5,2.237,3.628,4.48,3.275.689-.11,1.04-.427,1.04-.944a1.888,1.888,0,0,0-.159-.687c-.8-1.952-2.8-2.677-5.226-1.887Z"/><path class="cls-3" d="M97.654,65.365a1.83,1.83,0,0,1-.687.158c-.521,0-.833-.349-.942-1.042-.354-2.248.778-3.8,3.268-4.491l.179-.05.062.182c.785,2.434.067,4.441-1.879,5.242"/><path class="cls-3" d="M93.857,53.772c2.677,2.374,3,5.5.822,7.97a2.065,2.065,0,0,1-.514.441l-.3.165V59.223h-.285v3.123l-.292-.161a2.127,2.127,0,0,1-.521-.443c-2.175-2.468-1.851-5.6.825-7.97l.131-.115Z"/><path class="cls-3" d="M87.978,59.941l.182.048c2.491.691,3.619,2.244,3.265,4.493-.108.691-.425,1.042-.941,1.042a1.863,1.863,0,0,1-.686-.158c-1.945-.8-2.668-2.808-1.881-5.242Z"/><ellipse class="cls-3" cx="93.726" cy="94.309" rx="24.198" ry="24.265"/><ellipse class="cls-3" cx="93.725" cy="94.309" rx="27.123" ry="27.199"/><path class="cls-3" d="M-.638,83.5a1.842,1.842,0,0,0,.689.159c.519,0,.831-.351.941-1.043.354-2.248-.776-3.8-3.267-4.489l-.181-.05-.062.181C-3.3,80.689-2.583,82.7-.638,83.5"/><path class="cls-3" d="M3.16,71.906c-2.675,2.374-3,5.5-.822,7.968a2,2,0,0,0,.516.441l.294.167V77.355h.285v3.123l.292-.161a2.088,2.088,0,0,0,.521-.443c2.175-2.466,1.851-5.594-.824-7.968l-.133-.115Z"/><path class="cls-3" d="M12.347,81.614l.094.266-2.508.909.314.22a3.025,3.025,0,0,0,.445.253,5.477,5.477,0,0,0,2.248.526c1.807,0,3.357-1.1,4.471-3.174l.082-.151-.135-.1a5.341,5.341,0,0,0-3.219-1.192,4.973,4.973,0,0,0-3.906,2.069,1.618,1.618,0,0,0-.459,1.033l.014.271Z"/><path class="cls-3" d="M3.293,81.573c-.154.032-.307.06-.461.089v5.724c-.873-.831-1.476-1.407-2.08-1.979-.094.1-.189.207-.287.31.5,1.364.987,2.728,1.578,4.367-.921-.363-1.58-.625-2.25-.886,1.261,3.375,2.514,6.659,2.411,9.865l-4.617-7.338-9.543,5.913a6.648,6.648,0,0,0-2.066,9.148,6.577,6.577,0,0,0,5.6,3.093,6.586,6.586,0,0,0,3.522-1.02l7.635-4.73c.186-.025.37-.05.556-.062a12.049,12.049,0,0,1,2.59.59l6.785,4.2a6.627,6.627,0,0,0,7.056-11.219L11.713,92.69l-1.529-.965-4.74,7.531A19.523,19.523,0,0,1,6.788,89.2c-.669.26-1.329.523-2.25.886.592-1.639,1.083-3,1.577-4.367-.1-.1-.189-.207-.285-.31L3.75,87.385V81.661c-.151-.028-.306-.057-.457-.089"/><path class="cls-3" d="M13.346,86.541c0,.322.239.615.733.921a3.263,3.263,0,0,0,1.729.563A3.488,3.488,0,0,0,18.3,86.683l.12-.126-.114-.136a3,3,0,0,0-4.2-.838c-.526.335-.764.631-.762.958"/><path class="cls-3" d="M10.547,89.96c-.085.31.062.654.459,1.084a2.928,2.928,0,0,0,2.177,1.095,4.1,4.1,0,0,0,2.1-.707l.149-.094-.069-.161a3,3,0,0,0-3.826-1.938c-.6.181-.9.406-.99.721"/><path class="cls-3" d="M10.746,76.533a3.34,3.34,0,0,0-.629,2.661l.021.175.276,0a3.416,3.416,0,0,0,2.609-.9,3.328,3.328,0,0,0,.693-2.6l-.011-.172-.17-.016a3.182,3.182,0,0,0-2.79.843"/><path class="cls-3" d="M7.192,87.986l-.062.165.156.081a3.7,3.7,0,0,0,1.745.475,3.352,3.352,0,0,0,1.95-.663A3.327,3.327,0,0,0,12.522,84.9l-.014-.165-.167-.016a11.686,11.686,0,0,0-1.334-.085c-2.2,0-2.951,1.031-3.816,3.348"/><path class="cls-3" d="M9.04,78.075l-.184.048c-2.489.691-3.618,2.243-3.265,4.493.108.689.425,1.04.941,1.04a1.864,1.864,0,0,0,.686-.158c1.947-.8,2.668-2.808,1.881-5.24Z"/><path class="cls-3" d="M32.631,98.128a1.852,1.852,0,0,1-.158-.691c0-.521.347-.834,1.038-.944,2.243-.356,3.791.779,4.478,3.277l.05.181-.183.06c-2.425.788-4.429.067-5.226-1.883"/><path class="cls-3" d="M44.191,94.321c-2.367,2.682-5.488,3-7.947.824a1.955,1.955,0,0,1-.439-.517l-.165-.3h3.116v-.285H35.642l.161-.292a2.019,2.019,0,0,1,.441-.523c2.459-2.182,5.58-1.857,7.947.827l.113.133Z"/><path class="cls-3" d="M38.039,88.425l-.048.183c-.689,2.5-2.237,3.628-4.48,3.275-.687-.11-1.04-.427-1.04-.944a1.889,1.889,0,0,1,.159-.687c.8-1.952,2.8-2.675,5.226-1.887Z"/><path class="cls-3" d="M7.817,65.365a1.838,1.838,0,0,1-.689.158c-.519,0-.831-.349-.941-1.042-.354-2.248.776-3.8,3.267-4.491l.181-.05.062.182c.785,2.434.066,4.441-1.879,5.242"/><path class="cls-3" d="M4.019,53.772c2.675,2.374,3,5.5.822,7.97a2.07,2.07,0,0,1-.516.441l-.294.165V59.223H3.746v3.123l-.292-.161a2.127,2.127,0,0,1-.521-.443c-2.175-2.468-1.851-5.6.824-7.97l.133-.115Z"/><path class="cls-3" d="M-1.861,59.941l.184.048c2.489.691,3.618,2.244,3.265,4.493-.108.691-.425,1.042-.941,1.042a1.864,1.864,0,0,1-.686-.158c-1.947-.8-2.668-2.808-1.881-5.242Z"/><ellipse class="cls-3" cx="3.888" cy="94.309" rx="24.197" ry="24.265"/><ellipse class="cls-3" cx="3.887" cy="94.309" rx="27.123" ry="27.199"/><path class="cls-3" d="M19.689,52.175a1.855,1.855,0,0,0,.158-.691c0-.521-.347-.834-1.038-.944-2.243-.356-3.791.779-4.478,3.277l-.05.181.183.06c2.425.788,4.429.067,5.226-1.883"/><path class="cls-3" d="M8.13,48.366c2.367,2.684,5.488,3,7.947.826a1.956,1.956,0,0,0,.439-.517l.165-.3H13.565v-.285h3.114l-.161-.292a2.019,2.019,0,0,0-.441-.523C13.618,45.1,10.5,45.422,8.13,48.1l-.114.133Z"/><path class="cls-3" d="M14.282,42.47l.048.184c.689,2.5,2.237,3.628,4.48,3.275.687-.11,1.04-.427,1.04-.944a1.889,1.889,0,0,0-.159-.689c-.8-1.95-2.8-2.675-5.226-1.885Z"/><path class="cls-3" d="M77.176,52.175a1.852,1.852,0,0,1-.158-.691c0-.521.347-.834,1.038-.944,2.243-.356,3.791.779,4.478,3.277l.05.181-.183.06c-2.425.788-4.429.067-5.226-1.883"/><path class="cls-3" d="M88.734,48.366c-2.367,2.684-5.486,3-7.945.826a1.96,1.96,0,0,1-.439-.517l-.165-.3H83.3v-.285H80.187l.161-.292a1.979,1.979,0,0,1,.441-.523c2.459-2.182,5.579-1.857,7.945.826l.115.133Z"/><path class="cls-3" d="M82.584,42.47l-.048.184c-.689,2.5-2.237,3.628-4.48,3.275-.687-.11-1.04-.427-1.04-.944a1.889,1.889,0,0,1,.159-.689c.8-1.95,2.8-2.675,5.226-1.885Z"/><polygon class="cls-3" points="92.277 48.622 48.433 92.59 4.589 48.622 48.433 4.655 92.277 48.622"/><polygon class="cls-3" points="96 48.622 48.432 96.325 0.866 48.622 48.432 0.921 96 48.622"/><rect class="cls-3" x="0.275" y="0.33" width="96.318" height="96.589"/><rect class="cls-3" x="0.275" y="0.33" width="96.318" height="96.589"/></g></svg>