<svg id="Слой_1" data-name="Слой 1" xmlns="http://www.w3.org/2000/svg" xmlns:xlink="http://www.w3.org/1999/xlink" viewBox="0 0 100 100"><defs><style>.cls-1,.cls-3{fill:none;}.cls-2{clip-path:url(#clip-path);}.cls-3{stroke:#1d1d1b;stroke-linecap:round;stroke-linejoin:round;stroke-width:0.684px;}</style><clipPath id="clip-path"><polygon class="cls-1" points="0.332 0 0.332 97.894 97.963 97.894 97.485 0 0.332 0"/></clipPath></defs><title>composition-bg</title><g class="cls-2"><path class="cls-3" d="M78.141,45.369a1.881,1.881,0,0,0-.159.695c0,.526.351.841,1.045.951,2.255.359,3.814-.782,4.509-3.3l.046-.184-.181-.058c-2.441-.793-4.457-.067-5.26,1.894"/><path class="cls-3" d="M89.777,49.2c-2.383-2.7-5.523-3.025-8-.828a1.968,1.968,0,0,0-.444.52l-.165.3h3.138v.288H81.171l.163.294a2.054,2.054,0,0,0,.444.526c2.477,2.2,5.617,1.872,8-.83l.117-.136Z"/><path class="cls-3" d="M83.585,55.138l-.048-.184c-.693-2.514-2.253-3.653-4.511-3.3-.695.113-1.047.43-1.047.951a1.85,1.85,0,0,0,.163.691c.8,1.967,2.817,2.694,5.26,1.9Z"/><path class="cls-3" d="M20.267,45.369a1.881,1.881,0,0,1,.159.695c0,.526-.353.841-1.047.951-2.255.359-3.814-.782-4.507-3.3l-.048-.184L15,43.474c2.441-.793,4.459-.067,5.262,1.894"/><path class="cls-3" d="M8.631,49.2c2.383-2.7,5.523-3.025,8-.828a2,2,0,0,1,.442.52l.167.3H14.1v.288h3.134l-.161.294a2.1,2.1,0,0,1-.444.526c-2.477,2.2-5.617,1.872-8-.83l-.119-.136Z"/><path class="cls-3" d="M14.823,55.138l.048-.184c.693-2.514,2.253-3.653,4.511-3.3.693.113,1.045.43,1.045.951a1.843,1.843,0,0,1-.161.691c-.8,1.967-2.817,2.694-5.262,1.9Z"/><path class="cls-3" d="M45.247,20.317a1.879,1.879,0,0,0,.695.161c.522,0,.837-.353.947-1.049.357-2.264-.78-3.826-3.288-4.521l-.184-.048-.06.181c-.791,2.452-.065,4.471,1.89,5.277"/><path class="cls-3" d="M49.071,8.648c-2.694,2.391-3.017,5.54-.826,8.022a2,2,0,0,0,.517.444l.3.167V14.135h.288V17.28l.292-.163a2.154,2.154,0,0,0,.526-.446c2.189-2.483,1.863-5.631-.83-8.022L49.2,8.531Z"/><path class="cls-3" d="M54.991,14.858l-.184.048c-2.508.695-3.643,2.258-3.288,4.521.111.695.428,1.05.947,1.05a1.86,1.86,0,0,0,.691-.161c1.959-.805,2.685-2.825,1.892-5.275Z"/><path class="cls-3" d="M45.247,78.354a1.874,1.874,0,0,1,.695-.159c.522,0,.837.353.947,1.049.357,2.262-.78,3.824-3.288,4.519l-.184.048-.06-.181c-.791-2.452-.065-4.471,1.89-5.277"/><path class="cls-3" d="M49.071,90.023c-2.694-2.389-3.017-5.539-.826-8.022a2,2,0,0,1,.517-.444l.3-.167v3.148h.288V81.394l.292.161a2.154,2.154,0,0,1,.526.446c2.189,2.483,1.863,5.633-.83,8.022l-.134.119Z"/><path class="cls-3" d="M54.991,83.813l-.184-.048c-2.508-.695-3.643-2.258-3.288-4.521.111-.695.428-1.05.947-1.05a1.86,1.86,0,0,1,.691.161c1.961.808,2.685,2.825,1.892,5.277Z"/><ellipse class="cls-3" cx="49.204" cy="49.214" rx="24.361" ry="24.429"/><ellipse class="cls-3" cx="49.204" cy="49.214" rx="27.305" ry="27.381"/><path class="cls-3" d="M32.543,91.095a1.881,1.881,0,0,0-.159.695c0,.526.351.841,1.045.951,2.255.359,3.814-.782,4.509-3.3l.046-.184L37.8,89.2c-2.441-.795-4.457-.067-5.26,1.894"/><path class="cls-3" d="M44.179,94.929c-2.383-2.7-5.523-3.025-8-.828a1.968,1.968,0,0,0-.444.52l-.165.3h3.138V95.2H35.573l.163.294a2.053,2.053,0,0,0,.444.526c2.477,2.2,5.617,1.869,8-.83l.117-.136Z"/><path class="cls-3" d="M37.987,100.865l-.048-.184c-.693-2.514-2.253-3.653-4.511-3.3-.695.111-1.047.43-1.047.951a1.859,1.859,0,0,0,.163.691c.8,1.967,2.817,2.694,5.26,1.9Z"/><path class="cls-3" d="M-.351,66.043a1.872,1.872,0,0,0,.695.159c.522,0,.837-.353.947-1.049C1.648,62.891.511,61.328-2,60.633l-.184-.048-.061.181c-.791,2.452-.065,4.471,1.89,5.277"/><path class="cls-3" d="M3.474,54.374C.78,56.766.457,59.914,2.647,62.4a2,2,0,0,0,.517.444l.3.167V59.86h.288v3.146l.292-.163a2.154,2.154,0,0,0,.526-.446c2.189-2.483,1.863-5.631-.83-8.022L3.6,54.258Z"/><path class="cls-3" d="M9.393,60.585l-.184.048c-2.508.695-3.643,2.258-3.288,4.521.111.695.428,1.05.947,1.05a1.86,1.86,0,0,0,.691-.161c1.961-.805,2.685-2.825,1.892-5.275Z"/><ellipse class="cls-3" cx="3.606" cy="94.94" rx="24.361" ry="24.429"/><ellipse class="cls-3" cx="3.606" cy="94.94" rx="27.305" ry="27.381"/><path class="cls-3" d="M65.111,91.095a1.881,1.881,0,0,1,.159.695c0,.526-.351.841-1.045.951-2.255.359-3.814-.782-4.509-3.3l-.046-.184.181-.058c2.441-.795,4.457-.067,5.26,1.894"/><path class="cls-3" d="M53.475,94.929c2.383-2.7,5.523-3.025,8-.828a1.967,1.967,0,0,1,.444.52l.165.3H58.945V95.2h3.136l-.163.294a2.053,2.053,0,0,1-.444.526c-2.477,2.2-5.617,1.869-8-.83l-.117-.136Z"/><path class="cls-3" d="M59.667,100.865l.048-.184c.693-2.514,2.253-3.653,4.511-3.3.695.111,1.047.43,1.047.951a1.859,1.859,0,0,1-.163.691c-.8,1.967-2.817,2.694-5.26,1.9Z"/><path class="cls-3" d="M90.093,66.043a1.862,1.862,0,0,0,.693.159c.524,0,.839-.353.949-1.049.357-2.262-.782-3.824-3.29-4.519l-.184-.048-.058.181c-.791,2.452-.067,4.471,1.89,5.277"/><path class="cls-3" d="M93.916,54.374c-2.694,2.391-3.015,5.54-.826,8.022a2.009,2.009,0,0,0,.52.444l.3.167V59.86h.286v3.146l.294-.163a2.188,2.188,0,0,0,.524-.446c2.191-2.483,1.865-5.631-.828-8.022l-.136-.117Z"/><path class="cls-3" d="M99.835,60.585l-.184.048c-2.506.695-3.643,2.258-3.288,4.521.111.695.428,1.05.947,1.05A1.843,1.843,0,0,0,98,66.043c1.961-.805,2.685-2.825,1.894-5.275Z"/><ellipse class="cls-3" cx="94.049" cy="94.94" rx="24.361" ry="24.429"/><ellipse class="cls-3" cx="94.048" cy="94.94" rx="27.305" ry="27.381"/><path class="cls-3" d="M32.543-.894a1.863,1.863,0,0,0-.159.695c0,.524.351.841,1.045.951,2.255.359,3.814-.784,4.509-3.3l.046-.184L37.8-2.79c-2.441-.793-4.457-.067-5.26,1.9"/><path class="cls-3" d="M44.179,2.941c-2.383-2.7-5.523-3.025-8-.83a1.974,1.974,0,0,0-.444.522l-.165.3h3.138v.288H35.573l.163.294a2.053,2.053,0,0,0,.444.526c2.477,2.2,5.617,1.869,8-.83L44.3,3.07Z"/><path class="cls-3" d="M37.987,8.876l-.048-.184c-.693-2.516-2.253-3.653-4.511-3.3-.695.111-1.047.43-1.047.949a1.869,1.869,0,0,0,.163.693c.8,1.967,2.817,2.694,5.26,1.9Z"/><path class="cls-3" d="M-.351,32.092a1.881,1.881,0,0,1,.695-.161c.522,0,.837.353.947,1.049C1.648,35.245.511,36.807-2,37.5l-.184.048-.061-.184c-.791-2.45-.065-4.469,1.89-5.275"/><path class="cls-3" d="M3.474,43.761C.78,41.37.457,38.222,2.647,35.739a2,2,0,0,1,.517-.444l.3-.167v3.146h.288V35.129l.292.163a2.11,2.11,0,0,1,.526.446c2.189,2.483,1.863,5.631-.83,8.022l-.134.117Z"/><path class="cls-3" d="M9.393,37.551,9.209,37.5c-2.508-.695-3.643-2.258-3.288-4.521.111-.695.428-1.05.947-1.05a1.821,1.821,0,0,1,.691.161c1.961.805,2.685,2.825,1.892,5.275Z"/><ellipse class="cls-3" cx="3.606" cy="2.951" rx="24.361" ry="24.43"/><ellipse class="cls-3" cx="3.606" cy="2.951" rx="27.305" ry="27.382"/><path class="cls-3" d="M65.111-.894a1.864,1.864,0,0,1,.159.695c0,.524-.351.841-1.045.951-2.255.359-3.814-.784-4.509-3.3l-.046-.184.181-.061c2.441-.793,4.457-.067,5.26,1.9"/><path class="cls-3" d="M53.475,2.941c2.383-2.7,5.523-3.025,8-.83a1.973,1.973,0,0,1,.444.522l.165.3H58.945v.288h3.136l-.163.294a2.053,2.053,0,0,1-.444.526c-2.477,2.2-5.617,1.869-8-.83l-.117-.136Z"/><path class="cls-3" d="M59.667,8.876l.048-.184c.693-2.516,2.253-3.653,4.511-3.3.695.111,1.047.43,1.047.949a1.869,1.869,0,0,1-.163.693c-.8,1.967-2.817,2.694-5.26,1.9Z"/><path class="cls-3" d="M90.093,32.092a1.872,1.872,0,0,1,.693-.161c.524,0,.839.353.949,1.049.357,2.264-.782,3.826-3.29,4.521l-.184.048-.058-.184c-.791-2.45-.067-4.469,1.89-5.275"/><path class="cls-3" d="M93.916,43.761c-2.694-2.391-3.015-5.539-.826-8.022a2.009,2.009,0,0,1,.52-.444l.3-.167v3.146h.286V35.129l.294.163a2.142,2.142,0,0,1,.524.446c2.191,2.483,1.865,5.631-.828,8.022l-.136.117Z"/><path class="cls-3" d="M99.835,37.551l-.184-.048c-2.506-.695-3.643-2.258-3.288-4.521.111-.695.428-1.05.947-1.05a1.8,1.8,0,0,1,.691.161c1.961.805,2.685,2.825,1.894,5.275Z"/><ellipse class="cls-3" cx="94.049" cy="2.951" rx="24.361" ry="24.43"/><ellipse class="cls-3" cx="94.048" cy="2.951" rx="27.305" ry="27.382"/><path class="cls-3" d="M78.141,45.369a1.881,1.881,0,0,0-.159.695c0,.526.351.841,1.045.951,2.255.359,3.814-.782,4.509-3.3l.046-.184-.181-.058c-2.441-.793-4.457-.067-5.26,1.894"/><path class="cls-3" d="M89.777,49.2c-2.383-2.7-5.523-3.025-8-.828a1.968,1.968,0,0,0-.444.52l-.165.3h3.138v.288H81.171l.163.294a2.054,2.054,0,0,0,.444.526c2.477,2.2,5.617,1.872,8-.83l.117-.136Z"/><path class="cls-3" d="M83.585,55.138l-.048-.184c-.693-2.514-2.253-3.653-4.511-3.3-.695.113-1.047.43-1.047.951a1.85,1.85,0,0,0,.163.691c.8,1.967,2.817,2.694,5.26,1.9Z"/><path class="cls-3" d="M20.267,45.369a1.881,1.881,0,0,1,.159.695c0,.526-.353.841-1.047.951-2.255.359-3.814-.782-4.507-3.3l-.048-.184L15,43.474c2.441-.793,4.459-.067,5.262,1.894"/><path class="cls-3" d="M8.631,49.2c2.383-2.7,5.523-3.025,8-.828a2,2,0,0,1,.442.52l.167.3H14.1v.288h3.134l-.161.294a2.1,2.1,0,0,1-.444.526c-2.477,2.2-5.617,1.872-8-.83l-.119-.136Z"/><path class="cls-3" d="M14.823,55.138l.048-.184c.693-2.514,2.253-3.653,4.511-3.3.693.113,1.045.43,1.045.951a1.843,1.843,0,0,1-.161.691c-.8,1.967-2.817,2.694-5.262,1.9Z"/><polygon class="cls-3" points="5.063 48.946 49.203 4.681 93.344 48.946 49.203 93.21 5.063 48.946"/><polygon class="cls-3" points="1.316 48.946 49.204 0.923 97.092 48.946 49.204 96.97 1.316 48.946"/><rect class="cls-3" x="0.721" y="0.328" width="96.967" height="97.238"/><rect class="cls-3" x="0.721" y="0.328" width="96.967" height="97.238"/><circle class="cls-3" cx="49.241" cy="48.946" r="21.33"/><circle class="cls-3" cx="49.241" cy="48.946" r="19.59"/><path class="cls-3" d="M48.589,46.453a.7.7,0,0,0,1.306,0L54.608,34.08A2.469,2.469,0,0,0,52.315,30.7H46.17a2.469,2.469,0,0,0-2.3,3.382Z"/><path class="cls-3" d="M49.895,50.98a.7.7,0,0,0-1.306,0L43.875,63.353a2.469,2.469,0,0,0,2.3,3.382h6.145a2.469,2.469,0,0,0,2.293-3.382Z"/><path class="cls-3" d="M47.181,47.577a.7.7,0,0,0,.92-.922L42.689,34.573a2.47,2.47,0,0,0-4.014-.77l-4.346,4.344a2.468,2.468,0,0,0,.77,4.014Z"/><path class="cls-3" d="M51.3,49.855a.7.7,0,0,0-.92.922L55.795,62.86a2.472,2.472,0,0,0,4.014.772l4.346-4.346a2.468,2.468,0,0,0-.77-4.014Z"/><path class="cls-3" d="M48.1,50.778a.7.7,0,0,0-.92-.922L35.1,55.27a2.469,2.469,0,0,0-.772,4.014l4.346,4.346a2.47,2.47,0,0,0,4.014-.77Z"/><path class="cls-3" d="M50.382,46.654a.7.7,0,0,0,.922.922l12.08-5.414a2.469,2.469,0,0,0,.772-4.014L59.81,33.8a2.469,2.469,0,0,0-4.014.768Z"/><path class="cls-3" d="M51.506,48.064a.7.7,0,0,0,0,1.3l12.373,4.715a2.47,2.47,0,0,0,3.382-2.3V45.644a2.471,2.471,0,0,0-3.382-2.3Z"/><path class="cls-3" d="M46.977,49.368a.7.7,0,0,0,0-1.3l-12.37-4.715a2.472,2.472,0,0,0-3.384,2.3v6.145a2.471,2.471,0,0,0,3.384,2.3Z"/><circle class="cls-3" cx="3.606" cy="3.073" r="21.329"/><circle class="cls-3" cx="3.606" cy="3.073" r="19.591"/><path class="cls-3" d="M2.954.579a.7.7,0,0,0,1.3,0L8.973-11.793a2.47,2.47,0,0,0-2.3-3.382H.534a2.471,2.471,0,0,0-2.3,3.382Z"/><path class="cls-3" d="M4.258,5.107a.7.7,0,0,0-1.3,0L-1.762,17.48a2.472,2.472,0,0,0,2.3,3.384H6.678a2.471,2.471,0,0,0,2.3-3.384Z"/><path class="cls-3" d="M1.544,1.7A.7.7,0,0,0,2.466.782L-2.948-11.3a2.469,2.469,0,0,0-4.014-.772l-4.344,4.346a2.468,2.468,0,0,0,.77,4.014Z"/><path class="cls-3" d="M5.668,3.984a.7.7,0,0,0-.922.92L10.16,16.987a2.47,2.47,0,0,0,4.014.772l4.346-4.346A2.469,2.469,0,0,0,17.75,9.4Z"/><path class="cls-3" d="M2.467,4.905a.7.7,0,0,0-.922-.92L-10.536,9.4a2.47,2.47,0,0,0-.772,4.014l4.344,4.346a2.469,2.469,0,0,0,4.014-.77Z"/><path class="cls-3" d="M4.745.781a.7.7,0,0,0,.922.922L17.75-3.709a2.471,2.471,0,0,0,.772-4.014l-4.346-4.346a2.468,2.468,0,0,0-4.014.77Z"/><path class="cls-3" d="M5.87,2.191a.7.7,0,0,0,0,1.3L18.242,8.211a2.469,2.469,0,0,0,3.382-2.3V-.229a2.471,2.471,0,0,0-3.382-2.3Z"/><path class="cls-3" d="M1.342,3.5a.7.7,0,0,0,0-1.3L-11.03-2.524a2.471,2.471,0,0,0-3.382,2.3V5.915a2.469,2.469,0,0,0,3.382,2.3Z"/><circle class="cls-3" cx="94.048" cy="3.073" r="21.33"/><circle class="cls-3" cx="94.048" cy="3.073" r="19.59"/><path class="cls-3" d="M93.4.579a.7.7,0,0,0,1.306,0l4.713-12.373a2.47,2.47,0,0,0-2.293-3.382H90.978a2.47,2.47,0,0,0-2.3,3.382Z"/><path class="cls-3" d="M94.7,5.107a.7.7,0,0,0-1.306,0L88.683,17.48a2.471,2.471,0,0,0,2.3,3.384h6.145a2.471,2.471,0,0,0,2.293-3.384Z"/><path class="cls-3" d="M91.988,1.7a.7.7,0,0,0,.92-.922L87.5-11.3a2.47,2.47,0,0,0-4.014-.772L79.136-7.724a2.468,2.468,0,0,0,.77,4.014Z"/><path class="cls-3" d="M96.112,3.984a.7.7,0,0,0-.922.92L100.6,16.987a2.471,2.471,0,0,0,4.014.772l4.346-4.346a2.468,2.468,0,0,0-.77-4.014Z"/><path class="cls-3" d="M92.909,4.905a.7.7,0,0,0-.92-.92L79.906,9.4a2.47,2.47,0,0,0-.772,4.014l4.346,4.346a2.469,2.469,0,0,0,4.014-.77Z"/><path class="cls-3" d="M95.189.781a.7.7,0,0,0,.922.922l12.08-5.412a2.47,2.47,0,0,0,.772-4.014l-4.346-4.346a2.469,2.469,0,0,0-4.014.77Z"/><path class="cls-3" d="M96.314,2.191a.7.7,0,0,0,0,1.3l12.373,4.715a2.47,2.47,0,0,0,3.382-2.3V-.229a2.471,2.471,0,0,0-3.382-2.3Z"/><path class="cls-3" d="M91.784,3.5a.7.7,0,0,0,0-1.3L79.414-2.524a2.473,2.473,0,0,0-3.384,2.3V5.915a2.471,2.471,0,0,0,3.384,2.3Z"/><circle class="cls-3" cx="94.048" cy="94.94" r="21.33"/><circle class="cls-3" cx="94.048" cy="94.94" r="19.59"/><path class="cls-3" d="M93.4,92.448a.7.7,0,0,0,1.306,0l4.713-12.373a2.471,2.471,0,0,0-2.293-3.384H90.978a2.471,2.471,0,0,0-2.3,3.384Z"/><path class="cls-3" d="M94.7,96.975a.7.7,0,0,0-1.306,0l-4.713,12.373a2.47,2.47,0,0,0,2.3,3.382h6.145a2.47,2.47,0,0,0,2.293-3.382Z"/><path class="cls-3" d="M91.988,93.571a.7.7,0,0,0,.92-.92L87.5,80.568a2.471,2.471,0,0,0-4.014-.772l-4.346,4.346a2.468,2.468,0,0,0,.77,4.014Z"/><path class="cls-3" d="M96.112,95.85a.7.7,0,0,0-.922.922l5.412,12.081a2.47,2.47,0,0,0,4.014.772l4.346-4.346a2.468,2.468,0,0,0-.77-4.014Z"/><path class="cls-3" d="M92.909,96.774a.7.7,0,0,0-.92-.922l-12.083,5.412a2.47,2.47,0,0,0-.772,4.014l4.346,4.346a2.469,2.469,0,0,0,4.014-.77Z"/><path class="cls-3" d="M95.189,92.65a.7.7,0,0,0,.922.92l12.08-5.412a2.47,2.47,0,0,0,.772-4.014L104.618,79.8a2.469,2.469,0,0,0-4.014.77Z"/><path class="cls-3" d="M96.314,94.059a.7.7,0,0,0,0,1.3l12.373,4.715a2.471,2.471,0,0,0,3.382-2.3V91.639a2.47,2.47,0,0,0-3.382-2.3Z"/><path class="cls-3" d="M91.784,95.363a.7.7,0,0,0,0-1.3l-12.37-4.715a2.471,2.471,0,0,0-3.384,2.3v6.145a2.473,2.473,0,0,0,3.384,2.3Z"/><circle class="cls-3" cx="3.606" cy="94.94" r="21.329"/><circle class="cls-3" cx="3.606" cy="94.94" r="19.591"/><path class="cls-3" d="M2.954,92.448a.7.7,0,0,0,1.3,0L8.973,80.075a2.472,2.472,0,0,0-2.3-3.384H.534a2.471,2.471,0,0,0-2.3,3.384Z"/><path class="cls-3" d="M4.258,96.975a.7.7,0,0,0-1.3,0l-4.715,12.373a2.47,2.47,0,0,0,2.3,3.382H6.678a2.471,2.471,0,0,0,2.3-3.382Z"/><path class="cls-3" d="M1.544,93.571a.7.7,0,0,0,.922-.92L-2.948,80.568A2.47,2.47,0,0,0-6.962,79.8l-4.346,4.346a2.469,2.469,0,0,0,.77,4.014Z"/><path class="cls-3" d="M5.668,95.85a.7.7,0,0,0-.922.922l5.414,12.081a2.469,2.469,0,0,0,4.014.772l4.344-4.346a2.468,2.468,0,0,0-.77-4.014Z"/><path class="cls-3" d="M2.467,96.774a.7.7,0,0,0-.922-.922l-12.083,5.412a2.471,2.471,0,0,0-.772,4.014l4.346,4.346a2.468,2.468,0,0,0,4.014-.77Z"/><path class="cls-3" d="M4.745,92.65a.7.7,0,0,0,.922.92l12.08-5.412a2.47,2.47,0,0,0,.772-4.014L14.176,79.8a2.469,2.469,0,0,0-4.014.77Z"/><path class="cls-3" d="M5.87,94.059a.7.7,0,0,0,0,1.3l12.373,4.715a2.471,2.471,0,0,0,3.382-2.3V91.639a2.469,2.469,0,0,0-3.382-2.3Z"/><path class="cls-3" d="M1.342,95.363a.7.7,0,0,0,0-1.3L-11.03,89.344a2.469,2.469,0,0,0-3.382,2.3v6.145a2.471,2.471,0,0,0,3.382,2.3Z"/></g></svg>