<svg width="59" height="62" viewBox="0 0 59 62" fill="none" xmlns="http://www.w3.org/2000/svg">
<path d="M11.2267 52.672C11.8787 52.334 12.0949 51.7602 11.8106 51.1092C11.5354 50.4826 10.9775 50.2608 10.327 50.5319C10.1317 50.6092 9.92271 50.6903 9.64885 50.7783C8.95338 51.0177 8.30664 51.1409 7.72614 51.1409C6.09617 51.1409 4.96468 50.2291 4.38074 48.4409C3.69746 46.3923 3.77587 44.3297 4.59867 42.309C5.04155 41.2246 5.77014 40.5488 6.76556 40.3236C6.91038 40.2813 7.05675 40.2708 7.19797 40.2708C7.89705 40.2708 8.4549 40.6755 8.63456 41.3513C8.90122 42.2946 8.84202 43.1466 8.46005 43.8224C8.087 44.4842 7.41761 44.9631 6.5128 45.2094C6.31049 45.2657 6.11367 45.2974 5.89918 45.336C5.68469 45.3712 5.45286 45.41 5.23494 45.4698C4.68412 45.6318 4.41918 45.9978 4.4837 46.5118C4.55508 47.0399 4.90376 47.3495 5.44428 47.3566H5.57332C7.48574 47.3566 9.04432 46.9271 10.3081 46.0399C11.7845 45.005 12.4017 43.5092 12.102 41.6962C11.7845 39.8553 10.6566 38.6374 8.82451 38.1974C8.31368 38.0708 7.78723 38.0072 7.25546 38.0072C4.4837 38.0072 2.00451 39.6688 0.845393 42.1045C0.845393 42.1045 0.82789 42.1326 0.810559 42.1749C0.597954 42.643 0.416579 43.1182 0.30144 43.6322C0.280677 43.7166 0.270038 43.8013 0.257855 43.8997C-0.0541027 45.2655 -0.219691 47.2509 0.580452 49.3135C0.587315 49.3206 0.587315 49.3277 0.587315 49.3418C0.70949 49.634 0.845393 49.9438 1.01802 50.2499C1.01802 50.2499 1.01802 50.2499 1.01802 50.257C1.0441 50.3202 1.06864 50.3766 1.10158 50.433H1.12955C1.96968 51.8164 3.26864 52.8302 4.91251 53.2843C5.52099 53.4462 6.17459 53.5308 6.88584 53.5308C7.74364 53.5308 8.59423 53.4111 9.24629 53.3054C10.0167 53.186 10.6619 52.9747 11.2267 52.672Z" fill="#272727"/>
<path d="M51.197 38.1722C48.5543 38.6685 46.797 40.1964 46.1031 42.6006C45.3465 45.2196 45.9008 47.4619 47.7452 49.2641C48.8958 50.3765 50.273 51.1157 51.8211 51.883C52.6926 52.3267 53.5853 52.8371 54.1848 53.6712C54.9868 54.7906 55.1123 56.0507 54.5544 57.4166C54.0419 58.6696 53.0099 59.4125 51.4096 59.6835C50.796 59.7961 50.0463 59.7152 49.349 59.6272C49.1048 59.5955 48.8678 59.5568 48.6307 59.5357C48.5679 59.5357 48.5052 59.5288 48.4423 59.5288C47.8321 59.5288 47.4417 59.8385 47.3511 60.3912C47.2395 61.067 47.5776 61.5635 48.31 61.7745C48.8469 61.933 49.3941 61.9576 49.879 61.9788C50.0394 61.9859 50.1927 61.9859 50.3392 61.9999H50.3602C53.2539 61.8802 55.1193 61.2747 56.7824 59.8879C58.1075 58.7826 58.8534 56.9733 58.6931 55.273C58.5466 53.7417 57.6819 52.457 56.2525 51.672L55.7818 51.408C55.4853 51.2496 55.1995 51.0877 54.9136 50.9328C54.5929 50.7568 54.2581 50.609 53.9374 50.4541C53.4283 50.2076 52.8913 49.9437 52.3999 49.634C49.4188 47.7541 49.1575 44.2799 50.2277 41.661C50.6531 40.6331 51.4968 40.1685 52.7798 40.2459C53.8258 40.3022 54.4429 40.8091 54.8508 41.9427C55.0531 42.4951 55.1088 43.1043 55.1437 43.6323C55.2973 45.424 55.1576 47.2159 53.1843 48.2224C52.6751 48.4724 52.48 48.8913 52.6578 49.3279C52.8496 49.824 53.3169 50.0531 53.8677 49.9368C54.3001 49.8417 54.7253 49.701 55.1334 49.5673L55.2101 49.539C57.1101 48.8984 58.4352 47.3706 58.8604 45.3431C59.2928 43.2522 58.7 41.0345 57.3682 39.8307C55.6739 38.2884 53.5889 37.7322 51.197 38.1722Z" fill="#272727"/>
<path d="M26.181 38.1479C25.5048 38.1833 25.1089 38.6339 25.1177 39.3589C25.1264 40.0488 25.5257 40.4817 26.202 40.5382C26.5088 40.563 26.8068 40.5559 27.1173 40.5488C27.2532 40.5488 27.3909 40.5418 27.5286 40.5418H32.9763L32.0489 41.6823C31.1754 42.7455 30.3336 43.7732 29.5019 44.8081C27.898 46.8075 26.4949 48.5746 25.2169 50.2079C24.6765 50.8978 24.5857 51.609 24.9641 52.3199C25.3999 53.1437 26.1476 53.2352 26.6776 53.2352H26.6915C28.0602 53.2352 29.4321 53.2281 30.8144 53.2281H36.1071C36.9927 53.2281 37.5157 52.7846 37.5225 52.0417C37.5225 51.6933 37.4112 51.4012 37.1982 51.183C36.9542 50.933 36.5673 50.7921 36.0721 50.7921L30.8142 50.838H29.1582C29.1757 50.8061 29.1913 50.7781 29.2088 50.757C30.3769 49.2082 31.6441 47.6945 32.8574 46.223C33.4468 45.5191 34.0289 44.8079 34.6077 44.0899C35.4306 43.083 36.3579 41.9496 37.1634 40.7634C37.5505 40.2002 37.6341 39.5419 37.3866 39.0138C37.1495 38.5106 36.6579 38.1972 36.0477 38.1549C34.6008 38.0423 33.0946 38 31.4558 38C29.8715 38.0002 28.1894 38.0424 26.181 38.1479Z" fill="#272727"/>
<path d="M22.5214 40.8864C23.3111 41.1998 23.8984 41.0343 24.1828 40.4358C24.4808 39.8021 24.2246 39.1616 23.501 38.7602C22.7742 38.3659 21.9339 38.1476 20.8479 38.0596C20.5881 38.0419 20.3336 38.035 20.0807 38.035C16.5976 38.035 14.5648 39.9218 14.3487 43.3503C14.2303 45.3287 14.2598 47.335 14.2808 49.2852C14.2983 50.0842 14.3122 50.8834 14.3156 51.6787C14.3156 52.4216 14.6974 53.0025 15.3965 53.3403C15.6633 53.4599 15.9368 53.5234 16.2212 53.5234C17.2027 53.5234 17.9819 52.77 18.0289 51.7846C18.0864 50.7425 18.0689 49.6795 18.0637 48.6517C18.0567 48.194 18.0462 47.7435 18.0462 47.2929C18.0723 46.7507 18.0776 46.1946 18.0776 45.6594C18.0864 44.533 18.0934 43.3785 18.2956 42.259C18.5536 40.8334 19.4253 40.1823 20.8583 40.3299C21.3517 40.3722 21.7841 40.5624 22.2424 40.7631C22.3417 40.802 22.4325 40.8407 22.5214 40.8864Z" fill="#272727"/>
<path d="M43.5682 51.2498C43.5718 49.8313 43.5718 48.4198 43.5718 47.0116L43.5682 45.7937C43.5682 45.1988 43.5718 44.6004 43.5718 43.9986C43.5718 42.6539 43.5718 41.3162 43.5647 39.9679C43.5508 38.9541 42.7804 38.0951 41.7901 38.0284C40.8487 37.9581 40.0467 38.6234 39.8272 39.6477C39.7469 40.0455 39.754 40.4433 39.7608 40.8234C39.7608 40.9325 39.7608 41.0417 39.7608 41.1473C39.7608 44.3787 39.754 47.839 39.7608 51.2427C39.7679 52.605 40.528 53.5133 41.654 53.5133H41.6715C42.8219 53.5098 43.5682 52.6121 43.5682 51.2498Z" fill="#272727"/>
<path d="M26.1728 9.83409C26.4 9.92718 26.586 9.9683 26.7557 9.9683C27.1937 9.9683 27.4603 9.67524 27.5528 9.09424C27.8519 7.20442 26.8937 5.89904 24.7895 5.31888L24.6369 5.28138L24.5871 5.43258C23.923 7.47621 24.5297 9.16177 26.1728 9.83409Z" fill="#272727"/>
<path d="M19.294 16.2886L19.234 16.4253L19.3591 16.503C20.0183 16.9029 20.6011 17.0977 21.1325 17.0977C21.7967 17.0977 22.3993 16.797 22.9745 16.1775C23.3113 15.8127 23.4312 15.5248 23.3619 15.2669C23.2916 15.0021 23.0328 14.8124 22.527 14.6586C21.1154 14.2331 19.9514 14.8209 19.294 16.2886Z" fill="#272727"/>
<path d="M21.7044 10.8791L21.6933 11.0158C21.6006 12.0965 22.0395 12.9876 22.9977 13.6565C23.5223 14.0264 24.0794 14.2135 24.6425 14.2135C25.1225 14.2135 25.618 14.0794 26.1228 13.8146L26.2496 13.7445L26.199 13.6087C25.4688 11.6617 24.8302 10.7936 22.9712 10.7936C22.6558 10.7936 22.2846 10.8141 21.8432 10.8646L21.7044 10.8791Z" fill="#272727"/>
<path d="M20.6344 12.3946C20.6344 12.1178 20.4364 11.87 19.9916 11.5881C18.7617 10.8063 17.4606 11.0618 16.4355 12.2921L16.3429 12.4057L16.444 12.5126C17.1554 13.2695 17.8462 13.6403 18.5551 13.6403C19.0196 13.6403 19.4961 13.4865 20.0147 13.1669C20.4364 12.908 20.6301 12.6645 20.6344 12.3946Z" fill="#272727"/>
<path d="M20.5583 3.2755L20.4151 3.29257L20.4075 3.43519C20.3354 4.39377 20.5317 5.12933 20.9886 5.61716C21.4575 6.11776 22.1954 6.36979 23.1957 6.36979L23.4279 6.36811L23.4441 6.22027C23.5574 5.27019 23.373 4.49872 22.9162 3.98617C22.4191 3.4267 21.6048 3.17812 20.5583 3.2755Z" fill="#272727"/>
<path d="M29.3831 0.0965389C27.1229 2.08963 26.8503 4.72014 28.6897 6.79195C28.8345 6.95845 28.9786 7.08072 29.1259 7.16271L29.3745 7.30189V4.67583H29.6154V7.29861L29.8613 7.16439C30.0078 7.08072 30.1518 6.96106 30.3027 6.79195C32.142 4.72014 31.8695 2.08963 29.6067 0.0965389L29.4929 0L29.3831 0.0965389Z" fill="#272727"/>
<path d="M37.1494 8.25364L37.2283 8.47666L35.1062 9.24132L35.377 9.42498C35.4901 9.50621 35.6135 9.57449 35.7489 9.63689C36.4004 9.92911 37.0397 10.0777 37.65 10.0777C39.1809 10.0777 40.4853 9.15504 41.4281 7.41305L41.5002 7.28657L41.3836 7.19769C40.5231 6.54496 39.5836 6.199 38.6648 6.199C37.4202 6.199 36.2803 6.79875 35.3632 7.93846C35.0873 8.27938 34.9638 8.55276 34.9741 8.80386L34.9878 9.03108L37.1494 8.25364Z" fill="#272727"/>
<path d="M17.2438 7.19783L17.1273 7.28671L17.1966 7.41319C18.142 9.15518 19.4499 10.0778 20.9808 10.0778C21.5884 10.0778 22.2269 9.92917 22.8767 9.63703C23.0138 9.57472 23.1321 9.50635 23.2521 9.42512L23.522 9.24146L21.3956 8.4768L21.4787 8.25378L23.6437 9.03122L23.6549 8.80401C23.6635 8.5529 23.5409 8.27952 23.2666 7.9386C22.3513 6.79889 21.2079 6.19914 19.9685 6.19914C19.0479 6.19914 18.1043 6.5451 17.2438 7.19783Z" fill="#272727"/>
<path d="M18.1673 23.6845C16.8636 24.6141 16.495 26.409 17.3616 27.7759C18.2607 29.1907 20.1438 29.6179 21.5674 28.7225L26.6946 25.6811C26.4623 25.7734 25.4544 26.1151 23.2799 26.7285C15.6996 28.8559 18.0678 23.8863 18.1673 23.6845Z" fill="#272727"/>
<path d="M29.4971 8.21948C29.3668 8.24513 29.2383 8.27078 29.1088 8.29382V13.1021C28.369 12.4032 27.8608 11.9197 27.3508 11.4403C27.2694 11.5266 27.188 11.613 27.1049 11.6993C27.5249 12.8466 27.9405 13.9931 28.4411 15.3677C27.6628 15.0645 27.1049 14.844 26.5401 14.6236C27.6054 17.4616 28.6622 20.2203 28.5773 22.9149L24.6758 16.7492L16.6062 21.7172C13.9996 23.3583 13.2146 26.8039 14.8627 29.4028C15.893 31.0329 17.6604 32 19.5965 32C20.6517 32 21.6811 31.7061 22.5708 31.1423L29.0257 27.1696C29.1833 27.1491 29.3368 27.1269 29.4971 27.1201C30.2239 27.161 30.9542 27.4003 31.6862 27.6139L37.4202 31.1423C38.315 31.7061 39.347 32 40.3995 32C42.3332 32 44.1023 31.0329 45.1341 29.4028C45.9296 28.1453 46.1902 26.6518 45.861 25.2021C45.5318 23.7497 44.6542 22.5109 43.3822 21.7173L36.6144 17.5609L35.3219 16.7493L31.3141 23.0774C30.8684 20.3316 31.3518 17.5506 32.4489 14.6238C31.8848 14.8442 31.3278 15.0646 30.5478 15.3679C31.0501 13.9932 31.4649 12.8468 31.8832 11.6994C31.8009 11.6131 31.7203 11.5268 31.6397 11.4405C31.1323 11.9198 30.6181 12.4034 29.881 13.1023V8.29382C29.7551 8.27087 29.624 8.24513 29.4971 8.21948ZM43.3377 28.3127C42.4086 29.7821 40.4544 30.2229 38.9819 29.2968L33.6713 26.1478C33.9095 26.2384 34.9553 26.5972 37.2111 27.2293C45.0589 29.4369 42.6058 24.2861 42.5046 24.0777C43.8537 25.0379 44.2343 26.8961 43.3377 28.3127ZM28.0674 25.5856C28.0649 25.5924 28.0649 25.5924 28.0631 25.5976L21.5817 29.5702C20.9852 29.9462 20.2977 30.1478 19.5966 30.1478C18.3067 30.1478 17.1256 29.4984 16.4356 28.4117C15.9059 27.5779 15.7337 26.5817 15.9573 25.613C16.1741 24.6407 16.7605 23.8172 17.5978 23.2891L24.0913 19.3054L28.0674 25.5856Z" fill="#272727"/>
<path d="M37.9947 12.3947C37.9964 12.6646 38.1952 12.9081 38.6135 13.167C39.1294 13.4865 39.6077 13.6403 40.0741 13.6403C40.7803 13.6403 41.4729 13.2696 42.1842 12.5126L42.2854 12.4058L42.1894 12.2922C41.1677 11.0619 39.8683 10.8064 38.6375 11.5881C38.1918 11.87 37.9929 12.1178 37.9947 12.3947Z" fill="#272727"/>
<path d="M35.6286 15.2668C35.5565 15.5247 35.6783 15.8127 36.0142 16.1775C36.5902 16.7969 37.1919 17.0976 37.8553 17.0976C38.3902 17.0976 38.9713 16.9029 39.6313 16.503L39.7547 16.4252L39.6999 16.2886C39.0365 14.8208 37.8691 14.2331 36.4634 14.6584C35.956 14.8123 35.7022 15.0019 35.6286 15.2668Z" fill="#272727"/>
<path d="M35.7967 3.9862C35.3374 4.49623 35.1573 5.2703 35.2636 6.2203L35.2825 6.36814L35.5173 6.36982C36.515 6.36982 37.2556 6.11779 37.7218 5.61719C38.1812 5.12592 38.3767 4.3938 38.3081 3.43523L38.2978 3.2926L38.1539 3.27553C37.115 3.17807 36.2921 3.42665 35.7967 3.9862Z" fill="#272727"/>
<path d="M32.7913 13.6088L32.74 13.7446L32.8719 13.8146C33.3691 14.0794 33.8645 14.2136 34.3444 14.2136C34.9135 14.2136 35.4673 14.0265 35.9952 13.6565C36.9499 12.9877 37.3889 12.0965 37.2962 11.0158L37.286 10.8792L37.1454 10.8646C36.7032 10.8142 36.3346 10.7937 36.0175 10.7937C34.1576 10.7938 33.5216 11.6618 32.7913 13.6088Z" fill="#272727"/>
<path d="M34.3517 5.28139L34.1973 5.3189C32.0958 5.89897 31.1408 7.20443 31.4375 9.09426C31.53 9.67517 31.7975 9.96832 32.2346 9.96832C32.4008 9.96832 32.5894 9.92728 32.8123 9.83411C34.4613 9.16179 35.0682 7.47622 34.403 5.43259L34.3517 5.28139Z" fill="#272727"/>
</svg>
