<svg width="84" height="89" viewBox="0 0 84 89" fill="none" xmlns="http://www.w3.org/2000/svg">
<path d="M15.9837 75.6098C16.9121 75.1246 17.2199 74.301 16.8151 73.3664C16.4232 72.4669 15.629 72.1486 14.7028 72.5378C14.4248 72.6487 14.1273 72.7651 13.7373 72.8914C12.7472 73.2351 11.8264 73.4119 10.9999 73.4119C8.67929 73.4119 7.06836 72.1031 6.23699 69.5361C5.26417 66.5954 5.37582 63.6345 6.54726 60.7338C7.1778 59.1773 8.21512 58.2072 9.63232 57.8839C9.83851 57.8232 10.0469 57.808 10.248 57.808C11.2433 57.808 12.0375 58.389 12.2933 59.3591C12.6729 60.7132 12.5886 61.9362 12.0448 62.9064C11.5137 63.8564 10.5607 64.5437 9.27246 64.8974C8.98443 64.9782 8.70421 65.0237 8.39883 65.0792C8.09345 65.1296 7.7634 65.1853 7.45313 65.2711C6.66892 65.5037 6.29172 66.0291 6.38357 66.767C6.4852 67.525 6.98163 67.9694 7.75118 67.9796H7.9349C10.6577 67.9796 12.8767 67.3631 14.676 66.0896C16.7779 64.6039 17.6567 62.4568 17.2299 59.8542C16.7779 57.2117 15.1721 55.4634 12.5637 54.8317C11.8364 54.65 11.0869 54.5587 10.3298 54.5587C6.38357 54.5587 2.85388 56.9438 1.20361 60.4404C1.20361 60.4404 1.17869 60.4807 1.15402 60.5414C0.851325 61.2133 0.593096 61.8955 0.429169 62.6333C0.399608 62.7544 0.384461 62.876 0.367116 63.0173C-0.0770276 64.9779 -0.312781 67.8279 0.826406 70.7888C0.836178 70.799 0.836178 70.8092 0.836178 70.8293C1.01012 71.2488 1.20361 71.6935 1.44938 72.1329C1.44938 72.1329 1.44938 72.1329 1.44938 72.1431C1.48651 72.2339 1.52145 72.3147 1.56835 72.3958H1.60818C2.80429 74.3816 4.65366 75.8369 6.99409 76.4887C7.86039 76.7212 8.79094 76.8426 9.80358 76.8426C11.0248 76.8426 12.2359 76.6707 13.1642 76.519C14.2611 76.3477 15.1797 76.0443 15.9837 75.6098Z" fill="#29970E"/>
<path d="M72.8907 54.7956C69.1282 55.5081 66.6263 57.7012 65.6383 61.1525C64.5612 64.912 65.3503 68.1307 67.9763 70.7178C69.6143 72.3146 71.5751 73.3758 73.7792 74.4772C75.02 75.1141 76.2909 75.8467 77.1445 77.0442C78.2864 78.651 78.4649 80.4599 77.6707 82.4206C76.941 84.2193 75.4717 85.2857 73.1934 85.6747C72.3197 85.8363 71.2524 85.7202 70.2595 85.5938C69.9119 85.5483 69.5745 85.4929 69.2369 85.4625C69.1475 85.4625 69.0583 85.4526 68.9686 85.4526C68.0999 85.4526 67.5441 85.8972 67.4151 86.6905C67.2563 87.6607 67.7376 88.3734 68.7803 88.6763C69.5447 88.9039 70.3238 88.9392 71.0142 88.9695C71.2426 88.9797 71.4608 88.9797 71.6694 88.9999H71.6992C75.8191 88.828 78.475 87.9589 80.8428 85.9681C82.7293 84.3815 83.7912 81.7842 83.5631 79.3436C83.3544 77.1454 82.1234 75.3011 80.0883 74.1743L79.4182 73.7953C78.9961 73.568 78.5891 73.3355 78.182 73.1132C77.7254 72.8605 77.2488 72.6484 76.7922 72.4261C76.0673 72.0722 75.3029 71.6934 74.6032 71.2488C70.359 68.5503 69.9869 63.5631 71.5106 59.8037C72.1162 58.3282 73.3175 57.6612 75.1441 57.7724C76.6334 57.8532 77.5119 58.5809 78.0926 60.208C78.3807 61.0011 78.4601 61.8755 78.5097 62.6335C78.7283 65.2054 78.5294 67.7776 75.72 69.2225C74.9951 69.5813 74.7173 70.1826 74.9704 70.8093C75.2436 71.5216 75.9088 71.8503 76.693 71.6835C77.3087 71.5469 77.914 71.345 78.495 71.153L78.6042 71.1125C81.3094 70.1928 83.1959 67.9997 83.8013 65.0893C84.4169 62.0879 83.5728 58.9044 81.6768 57.1763C79.2645 54.9624 76.296 54.1639 72.8907 54.7956Z" fill="#29970E"/>
<path d="M37.2747 54.7608C36.3119 54.8115 35.7483 55.4583 35.7608 56.4991C35.7732 57.4894 36.3417 58.1108 37.3045 58.1919C37.7413 58.2275 38.1657 58.2173 38.6076 58.2071C38.8011 58.2071 38.9973 58.1971 39.1932 58.1971H46.9494L45.6289 59.8343C44.3854 61.3605 43.1868 62.8357 42.0027 64.3213C39.7192 67.1914 37.7215 69.7281 35.902 72.0727C35.1326 73.063 35.0034 74.0838 35.5421 75.1044C36.1626 76.2869 37.2271 76.4183 37.9817 76.4183H38.0015C39.9501 76.4183 41.9033 76.4081 43.8714 76.4081H51.4067C52.6675 76.4081 53.4121 75.7714 53.4219 74.7051C53.4219 74.2049 53.2634 73.7856 52.9602 73.4723C52.6128 73.1134 52.0619 72.9113 51.3568 72.9113L43.8711 72.9772H41.5134C41.5383 72.9314 41.5605 72.8911 41.5854 72.8608C43.2484 70.6375 45.0526 68.4647 46.78 66.3524C47.6192 65.3419 48.4479 64.3211 49.2719 63.2903C50.4436 61.8449 51.7638 60.218 52.9106 58.5152C53.4617 57.7067 53.5807 56.7617 53.2284 56.0037C52.8908 55.2813 52.1909 54.8314 51.3221 54.7707C49.2622 54.6091 47.1177 54.5484 44.7846 54.5484C42.5289 54.5486 40.134 54.6093 37.2747 54.7608Z" fill="#29970E"/>
<path d="M32.0644 58.6918C33.1887 59.1416 34.0249 58.9041 34.4297 58.0449C34.8541 57.1352 34.4893 56.2158 33.4591 55.6396C32.4242 55.0736 31.2279 54.7603 29.6817 54.6339C29.3118 54.6086 28.9495 54.5986 28.5894 54.5986C23.6305 54.5986 20.7363 57.3071 20.4287 62.2286C20.2601 65.0686 20.3021 67.9487 20.332 70.7481C20.3569 71.8951 20.3767 73.0423 20.3815 74.184C20.3815 75.2504 20.9251 76.0842 21.9204 76.5692C22.3003 76.7408 22.6897 76.832 23.0945 76.832C24.4919 76.832 25.6013 75.7505 25.6683 74.3359C25.7501 72.8401 25.7252 71.3141 25.7179 69.8387C25.7078 69.1817 25.6929 68.5351 25.6929 67.8882C25.7301 67.1098 25.7377 66.3116 25.7377 65.5434C25.7501 63.9264 25.7601 62.2691 26.0479 60.6621C26.4153 58.6157 27.6564 57.6811 29.6966 57.893C30.399 57.9537 31.0146 58.2267 31.6671 58.5147C31.8086 58.5707 31.9378 58.6261 32.0644 58.6918Z" fill="#29970E"/>
<path d="M62.0292 73.5683C62.0344 71.5321 62.0344 69.5058 62.0344 67.4844L62.0292 65.7361C62.0292 64.8821 62.0344 64.0232 62.0344 63.1592C62.0344 61.2289 62.0344 59.3088 62.0244 57.3733C62.0046 55.9179 60.9077 54.685 59.4978 54.5892C58.1575 54.4882 57.0157 55.4432 56.7032 56.9137C56.5889 57.4847 56.5989 58.0557 56.6087 58.6013C56.6087 58.758 56.6087 58.9146 56.6087 59.0663C56.6087 63.7049 56.5989 68.6722 56.6087 73.5581C56.6187 75.5136 57.7009 76.8174 59.304 76.8174H59.329C60.9668 76.8125 62.0292 75.5238 62.0292 73.5683Z" fill="#29970E"/>
<path d="M37.263 14.1167C37.5864 14.2503 37.8512 14.3093 38.0929 14.3093C38.7164 14.3093 39.096 13.8887 39.2277 13.0546C39.6535 10.3418 38.2893 8.46798 35.2935 7.63517L35.0762 7.58133L35.0053 7.79837C34.0598 10.732 34.9237 13.1516 37.263 14.1167Z" fill="#29970E"/>
<path d="M27.4694 23.382L27.384 23.5782L27.5621 23.6899C28.5006 24.2639 29.3304 24.5434 30.087 24.5434C31.0326 24.5434 31.8906 24.1118 32.7094 23.2226C33.1889 22.6989 33.3597 22.2856 33.261 21.9154C33.1609 21.5352 32.7924 21.2629 32.0723 21.0421C30.0626 20.4314 28.4053 21.2751 27.4694 23.382Z" fill="#29970E"/>
<path d="M30.9012 15.6168L30.8853 15.813C30.7534 17.3644 31.3783 18.6435 32.7425 19.6036C33.4894 20.1347 34.2825 20.4033 35.0843 20.4033C35.7676 20.4033 36.4731 20.2107 37.1918 19.8306L37.3724 19.73L37.3003 19.5351C36.2607 16.7402 35.3514 15.4941 32.7047 15.4941C32.2557 15.4941 31.7272 15.5235 31.0988 15.5959L30.9012 15.6168Z" fill="#29970E"/>
<path d="M29.3779 17.7923C29.3779 17.3949 29.096 17.0392 28.4626 16.6345C26.7116 15.5123 24.8591 15.8791 23.3996 17.6451L23.2679 17.8082L23.4118 17.9616C24.4247 19.0482 25.4082 19.5804 26.4174 19.5804C27.0787 19.5804 27.7572 19.3596 28.4955 18.9009C29.096 18.5292 29.3717 18.1798 29.3779 17.7923Z" fill="#29970E"/>
<path d="M29.2695 4.70193L29.0656 4.72643L29.0547 4.93117C28.9521 6.30719 29.2316 7.36308 29.882 8.06334C30.5496 8.78195 31.6003 9.14373 33.0244 9.14373L33.355 9.14132L33.3781 8.9291C33.5393 7.56527 33.2769 6.45784 32.6264 5.72209C31.9187 4.91897 30.7594 4.56214 29.2695 4.70193Z" fill="#29970E"/>
<path d="M41.8336 0.13858C38.6157 2.99963 38.2276 6.77569 40.8463 9.74973C41.0526 9.98874 41.2576 10.1643 41.4674 10.282L41.8213 10.4817V6.71207H42.1642V10.477L42.5144 10.2844C42.723 10.1643 42.928 9.99248 43.1428 9.74973C45.7616 6.77569 45.3735 2.99963 42.152 0.13858L41.9898 0L41.8336 0.13858Z" fill="#29970E"/>
<path d="M52.8907 11.848L53.003 12.1681L49.9816 13.2658L50.3672 13.5294C50.5283 13.646 50.704 13.744 50.8968 13.8336C51.8243 14.2531 52.7346 14.4664 53.6033 14.4664C55.7829 14.4664 57.64 13.1419 58.9824 10.6413L59.085 10.4598L58.919 10.3322C57.6939 9.39518 56.3564 8.89856 55.0482 8.89856C53.2763 8.89856 51.6533 9.75949 50.3476 11.3955C49.9547 11.8849 49.779 12.2774 49.7937 12.6378L49.8131 12.964L52.8907 11.848Z" fill="#29970E"/>
<path d="M24.5506 10.3324L24.3846 10.46L24.4833 10.6415C25.8293 13.1421 27.6914 14.4666 29.8709 14.4666C30.736 14.4666 31.6451 14.2532 32.5703 13.8338C32.7654 13.7444 32.9338 13.6462 33.1047 13.5296L33.489 13.266L30.4615 12.1683L30.5798 11.8482L33.6622 12.9642L33.6782 12.638C33.6905 12.2776 33.5158 11.8851 33.1253 11.3957C31.8222 9.7597 30.1943 8.89876 28.4298 8.89876C27.1191 8.89876 25.7756 9.39538 24.5506 10.3324Z" fill="#29970E"/>
<path d="M25.8653 33.9987C24.0093 35.3331 23.4845 37.9096 24.7182 39.8718C25.9982 41.9027 28.6793 42.516 30.7061 41.2307L38.0059 36.8649C37.6752 36.9973 36.2402 37.4879 33.1442 38.3684C22.352 41.4222 25.7236 34.2883 25.8653 33.9987Z" fill="#29970E"/>
<path d="M41.9959 11.7989C41.8104 11.8358 41.6274 11.8726 41.443 11.9056V18.8078C40.3898 17.8046 39.6662 17.1105 38.9401 16.4224C38.8242 16.5463 38.7083 16.6702 38.59 16.7941C39.1879 18.4411 39.7798 20.0868 40.4924 22.0601C39.3843 21.6248 38.59 21.3083 37.7858 20.9919C39.3027 25.0659 40.8072 29.0259 40.6864 32.894L35.1317 24.0432L23.6427 31.1747C19.9316 33.5305 18.814 38.4765 21.1605 42.2072C22.6274 44.5473 25.1436 45.9355 27.9002 45.9355C29.4024 45.9355 30.868 45.5136 32.1347 44.7042L41.3247 39.0015C41.5492 38.9721 41.7677 38.9402 41.9959 38.9304C43.0307 38.9892 44.0704 39.3326 45.1125 39.6393L53.2762 44.7042C54.5502 45.5136 56.0195 45.9355 57.5179 45.9355C60.271 45.9355 62.7897 44.5473 64.2588 42.2072C65.3913 40.4021 65.7623 38.2583 65.2936 36.1772C64.825 34.0923 63.5755 32.314 61.7645 31.1748L52.129 25.2084L50.2888 24.0433L44.5828 33.1272C43.9482 29.1857 44.6365 25.1936 46.1984 20.9922C45.3954 21.3086 44.6022 21.625 43.4918 22.0604C44.2069 20.0871 44.7975 18.4414 45.3931 16.7943C45.2758 16.6705 45.1611 16.5465 45.0464 16.4227C44.3239 17.1107 43.5918 17.8048 42.5424 18.8081V11.9056C42.3632 11.8727 42.1765 11.8358 41.9959 11.7989ZM61.7012 40.6424C60.3784 42.7518 57.5961 43.3845 55.4997 42.0551L47.9388 37.5347C48.278 37.6647 49.7668 38.1798 52.9786 39.0872C64.1516 42.2562 60.6591 34.8624 60.515 34.5631C62.4358 35.9415 62.9776 38.609 61.7012 40.6424ZM39.9604 36.7278C39.9568 36.7375 39.9568 36.7375 39.9543 36.7449L30.7265 42.4476C29.8772 42.9873 28.8984 43.2766 27.9003 43.2766C26.0638 43.2766 24.3822 42.3445 23.3998 40.7845C22.6457 39.5876 22.4005 38.1576 22.7189 36.767C23.0276 35.3713 23.8624 34.1891 25.0545 33.4312L34.2995 27.7126L39.9604 36.7278Z" fill="#29970E"/>
<path d="M54.0941 17.7923C54.0965 18.1798 54.3797 18.5293 54.9752 18.901C55.7097 19.3597 56.3906 19.5805 57.0546 19.5805C58.0601 19.5805 59.0461 19.0483 60.0589 17.9617L60.2029 17.8083L60.0663 17.6452C58.6117 15.8791 56.7617 15.5124 55.0093 16.6346C54.3747 17.0392 54.0916 17.3949 54.0941 17.7923Z" fill="#29970E"/>
<path d="M50.7254 21.9153C50.6229 22.2855 50.7962 22.6988 51.2745 23.2225C52.0945 24.1117 52.9512 24.5434 53.8956 24.5434C54.6572 24.5434 55.4845 24.2638 56.4242 23.6898L56.5999 23.5781L56.5218 23.382C55.5774 21.275 53.9153 20.4313 51.914 21.0419C51.1916 21.2628 50.8303 21.535 50.7254 21.9153Z" fill="#29970E"/>
<path d="M50.9649 5.72213C50.3108 6.45426 50.0545 7.56544 50.2059 8.92915L50.2328 9.14136L50.567 9.14378C51.9875 9.14378 53.0419 8.78199 53.7056 8.06338C54.3597 7.35817 54.638 6.30723 54.5403 4.93121L54.5257 4.72648L54.3208 4.70197C52.8417 4.56207 51.6702 4.9189 50.9649 5.72213Z" fill="#29970E"/>
<path d="M46.686 19.5352L46.6128 19.7301L46.8007 19.8307C47.5085 20.2108 48.2138 20.4033 48.8972 20.4033C49.7073 20.4033 50.4958 20.1348 51.2473 19.6037C52.6067 18.6436 53.2316 17.3644 53.0997 15.8131L53.0851 15.6169L52.885 15.596C52.2553 15.5236 51.7307 15.4941 51.2792 15.4941C48.6311 15.4943 47.7257 16.7403 46.686 19.5352Z" fill="#29970E"/>
<path d="M48.9074 7.58136L48.6877 7.63519C45.6957 8.46788 44.3361 10.3418 44.7584 13.0547C44.8902 13.8886 45.271 14.3094 45.8933 14.3094C46.13 14.3094 46.3985 14.2505 46.7158 14.1167C49.0636 13.1516 49.9276 10.732 48.9806 7.7984L48.9074 7.58136Z" fill="#29970E"/>
</svg>
